<svg xmlns="http://www.w3.org/2000/svg" viewBox="0 0 1100 730" width="1100" height="730" font-family="'Segoe UI',system-ui,sans-serif">
<rect width="100%" height="100%" fill="white"/>
<defs>
  <filter id="sh" x="-2%" y="-4%" width="104%" height="112%"><feDropShadow dx="0" dy="1" stdDeviation="2" flood-color="#00000008"/></filter>
  <!-- Azure DevOps logo (infinity/bowtie) -->
  <symbol id="devops-logo" viewBox="0 0 18 18">
    <path d="M17 4v10l-3 2l-7.03-2.58V16l-3.47-4.5l10.5.83V5.17L17 4ZM13.97 3.42L6.94 1L4 3.5v11l2.94-1.08V5.25l7.03 1.59V3.42Z" fill="#0078D4"/>
  </symbol>
  <!-- Fabric icon gradients -->
  <linearGradient id="fab-a" x1="12.953" x2="12.953" y1="44" y2="29.457" gradientUnits="userSpaceOnUse"><stop offset=".056" stop-color="#2AAC94"/><stop offset="1" stop-color="#085954"/></linearGradient>
  <linearGradient id="fab-b" x1="31.331" x2="17.286" y1="33.448" y2="18.173" gradientUnits="userSpaceOnUse"><stop offset=".042" stop-color="#ABE88E"/><stop offset=".549" stop-color="#2AAA92"/><stop offset=".906" stop-color="#117865"/></linearGradient>
  <linearGradient id="fab-e" x1="7.013" x2="39.06" y1="10.247" y2="25.128" gradientUnits="userSpaceOnUse"><stop stop-color="#6AD6F9"/><stop offset=".23" stop-color="#60E9D0"/><stop offset=".651" stop-color="#6DE9BB"/><stop offset=".994" stop-color="#ABE88E"/></linearGradient>
  <!-- VS Code icon symbol -->
  <symbol id="vscode-icon" viewBox="0 0 100 100">
    <path d="M70.9119 99.3171C72.4869 99.9307 74.2828 99.8914 75.8725 99.1264L96.4608 89.2197C98.6242 88.1787 100 85.9892 100 83.5872V16.4133C100 14.0113 98.6243 11.8218 96.4609 10.7808L75.8725 0.873756C73.7862 -0.130129 71.3446 0.11576 69.5135 1.44695C69.252 1.63711 69.0028 1.84943 68.769 2.08341L29.3551 38.0415L12.1872 25.0096C10.589 23.7965 8.35363 23.8959 6.86933 25.2461L1.36303 30.2549C-0.452552 31.9064 -0.454633 34.7627 1.35853 36.417L16.2471 50.0001L1.35853 63.5832C-0.454633 65.2374 -0.452552 68.0938 1.36303 69.7453L6.86933 74.7541C8.35363 76.1043 10.589 76.2037 12.1872 74.9905L29.3551 61.9587L68.769 97.9167C69.3925 98.5406 70.1246 99.0104 70.9119 99.3171ZM75.0152 27.2989L45.1091 50.0001L75.0152 72.7012V27.2989Z" fill="#0065A9"/>
    <path d="M96.4614 10.7962L75.8569 0.875542C73.4719 -0.272773 70.6217 0.211611 68.75 2.08333L1.29858 63.5832C-0.515693 65.2373 -0.513607 68.0937 1.30308 69.7452L6.81272 74.754C8.29793 76.1042 10.5347 76.2036 12.1338 74.9905L93.3609 13.3699C96.086 11.3026 100 13.2462 100 16.6667V16.4275C100 14.0265 98.6246 11.8378 96.4614 10.7962Z" fill="#0065A9"/>
    <path d="M96.4614 89.2038L75.8569 99.1245C73.4719 100.273 70.6217 99.7884 68.75 97.9167L1.29858 36.4169C-0.515693 34.7627 -0.513607 31.9063 1.30308 30.2548L6.81272 25.246C8.29793 23.8958 10.5347 23.7964 12.1338 25.0095L93.3609 86.6301C96.086 88.6974 100 86.7538 100 83.3334V83.5726C100 85.9735 98.6246 88.1622 96.4614 89.2038Z" fill="#007ACC"/>
    <path d="M75.8578 99.1263C73.4721 100.274 70.6219 99.7885 68.75 97.9166C71.0564 100.223 75 98.5895 75 95.3278V4.67213C75 1.41039 71.0564 -0.223106 68.75 2.08329C70.6219 0.211402 73.4721 -0.273666 75.8578 0.873633L96.4587 10.7807C98.6234 11.8217 100 14.0112 100 16.4132V83.5871C100 85.9891 98.6234 88.1786 96.4586 89.2196L75.8578 99.1263Z" fill="#1F9CF0"/>
  </symbol>
  <!-- Fabric logo symbol -->
  <symbol id="fabric-logo" viewBox="0 0 48 48">
    <path fill="url(#fab-e)" d="m12.899 21.235 26.938-3.98a1.6 1.6 0 0 0 1.323-1.17l2.78-10.06a1.595 1.595 0 0 0-1.74-2.012L16.498 7.81a7.19 7.19 0 0 0-5.777 5.193L7.013 26.438c.744-2.717 1.202-4.355 5.886-5.203"/>
    <path fill="url(#fab-b)" d="M10.14 32.152c-4.863.753-5.861 4.423-5.861 4.423l4.656-17.11 24.333-3.292-3.318 12.052a1.71 1.71 0 0 1-1.388 1.244l-.136.022-18.423 2.684z"/>
    <path fill="url(#fab-a)" fill-rule="evenodd" d="m5.64 31.6-.586 2.144c-.218.685-.524 1.693-.689 2.59a5.63 5.63 0 0 0 4.638 7.588c.792.114 1.688.108 2.692-.04l4.613-.636a2.92 2.92 0 0 0 2.421-2.127l3.175-11.662L5.64 31.599Z" clip-rule="evenodd"/>
  </symbol>
</defs>

<!-- Title -->
<text x="550" y="28" text-anchor="middle" font-size="14" font-weight="700" fill="#242424" letter-spacing="0.5">Fabric Agentic Workspace — Development &amp; Deployment Workflow</text>

<!-- ═══════════════════════════════════════════════════ -->
<!-- VS CODE — LOCAL FOLDER (top-left)                  -->
<!-- ═══════════════════════════════════════════════════ -->
<!-- Fill background -->
<rect x="50" y="46" width="380" height="128" rx="10" fill="#2D2D2D" filter="url(#sh)"/>
<!-- Content -->
<use href="#vscode-icon" x="62" y="56" width="20" height="20"/>
<text x="88" y="70" font-size="12" font-weight="700" fill="#E5E5E5">VS Code — Local Agentic Workspace</text>
<text x="70" y="90" font-size="9.5" fill="#9CDCFE">📁 C:\Users\you\Fabric Workspaces\ (one sub-folder per workspace)</text>
<text x="70" y="108" font-size="9.5" fill="#CE9178">🤖 GitHub Copilot + 8 specialist AI agents</text>
<text x="70" y="126" font-size="9.5" fill="#9CDCFE">Edit: TMDL · DAX · Notebooks · Pipelines · Reports</text>
<!-- Badges -->
<rect x="70" y="136" width="170" height="24" rx="5" fill="rgba(255,255,255,0.06)" stroke="rgba(255,255,255,0.15)" stroke-width="0.8"/>
<use href="#fabric-logo" x="76" y="138" width="20" height="20"/>
<text x="100" y="152" font-size="9" fill="#55DDB9" font-weight="600">Fabric Extension (mandatory)</text>
<rect x="252" y="136" width="150" height="24" rx="5" fill="rgba(255,255,255,0.06)" stroke="rgba(255,255,255,0.15)" stroke-width="0.8"/>
<text x="262" y="152" font-size="9" fill="#CE9178" font-weight="600">Mixed: AI + Manual edits</text>
<!-- Border on top -->
<rect x="50" y="46" width="380" height="128" rx="10" fill="none" stroke="#555" stroke-width="1"/>

<!-- ═══════════════════════════════════════════════════ -->
<!-- ARROWS: VS Code ↔ DEV Workspace (push/pull)        -->
<!-- ═══════════════════════════════════════════════════ -->
<path d="M155,194 L155,232" stroke="#0078D4" stroke-width="1.5" fill="none"/>
<path d="M152,227 L155,235 L158,227" fill="none" stroke="#0078D4" stroke-width="1.5" stroke-linejoin="round"/>

<path d="M325,232 L325,194" stroke="#107C10" stroke-width="1.5" fill="none" stroke-dasharray="4,2"/>
<path d="M322,199 L325,192 L328,199" fill="none" stroke="#107C10" stroke-width="1.5" stroke-linejoin="round"/>

<text x="118" y="217" font-size="9.5" fill="#0078D4" font-weight="600">push</text>
<text x="335" y="217" font-size="9.5" fill="#107C10" font-weight="600">pull</text>
<text x="240" y="210" text-anchor="middle" font-size="10" fill="#777" font-style="italic">via Fabric VS Code Extension</text>
<text x="240" y="224" text-anchor="middle" font-size="9.5" fill="#999" font-style="italic">(local files ↔ DEV workspace)</text>

<!-- ═══════════════════════════════════════════════════ -->
<!-- FABRIC DEV WORKSPACE                               -->
<!-- ═══════════════════════════════════════════════════ -->
<!-- Fill background -->
<rect x="50" y="252" width="380" height="116" rx="10" fill="#fff" filter="url(#sh)"/>
<!-- Header band -->
<rect x="50" y="252" width="380" height="30" rx="10" fill="#E0F7F4"/>
<rect x="50" y="272" width="380" height="10" fill="#E0F7F4"/>
<!-- Border on top -->
<rect x="50" y="252" width="380" height="116" rx="10" fill="none" stroke="#038387" stroke-width="1.2"/>
<!-- Content -->
<use href="#fabric-logo" x="62" y="256" width="20" height="20"/>
<text x="88" y="271" font-size="12" font-weight="700" fill="#038387">Fabric DEV Workspace</text>

<text x="70" y="298" font-size="10.5" fill="#555">Test changes live in the Fabric portal</text>
<text x="70" y="314" font-size="10.5" fill="#555">Run pipelines, validate semantic models, check reports</text>
<text x="70" y="330" font-size="10.5" fill="#555">Make manual portal amendments alongside VS Code edits</text>

<!-- Item badges -->
<rect x="70" y="340" width="95" height="20" rx="4" fill="#fafbfc" stroke="#e5e5e5" stroke-width=".6"/>
<text x="117" y="354" text-anchor="middle" font-size="9" fill="#555">Semantic Models</text>
<rect x="173" y="340" width="72" height="20" rx="4" fill="#fafbfc" stroke="#e5e5e5" stroke-width=".6"/>
<text x="209" y="354" text-anchor="middle" font-size="9" fill="#555">Notebooks</text>
<rect x="253" y="340" width="68" height="20" rx="4" fill="#fafbfc" stroke="#e5e5e5" stroke-width=".6"/>
<text x="287" y="354" text-anchor="middle" font-size="9" fill="#555">Pipelines</text>
<rect x="329" y="340" width="60" height="20" rx="4" fill="#fafbfc" stroke="#e5e5e5" stroke-width=".6"/>
<text x="359" y="354" text-anchor="middle" font-size="9" fill="#555">Reports</text>

<!-- ═══════════════════════════════════════════════════ -->
<!-- ARROWS: DEV Workspace ↔ DevOps (commit/revert)     -->
<!-- ═══════════════════════════════════════════════════ -->
<path d="M450,292 L546,292" stroke="#0078D4" stroke-width="1.5" fill="none"/>
<path d="M541,289 L548,292 L541,295" fill="none" stroke="#0078D4" stroke-width="1.5" stroke-linejoin="round"/>

<path d="M546,336 L450,336" stroke="#D83B01" stroke-width="1.5" fill="none" stroke-dasharray="4,2"/>
<path d="M455,333 L448,336 L455,339" fill="none" stroke="#D83B01" stroke-width="1.5" stroke-linejoin="round"/>

<text x="498" y="284" text-anchor="middle" font-size="9.5" fill="#0078D4" font-weight="600">commit</text>
<text x="498" y="352" text-anchor="middle" font-size="9.5" fill="#D83B01" font-weight="600">revert</text>
<text x="498" y="308" text-anchor="middle" font-size="10" fill="#777" font-style="italic">Fabric Git Integration</text>
<text x="498" y="322" text-anchor="middle" font-size="9.5" fill="#999" font-style="italic">(Workspace Settings → Git)</text>

<!-- ═══════════════════════════════════════════════════ -->
<!-- AZURE DEVOPS — DEV BRANCH                          -->
<!-- ═══════════════════════════════════════════════════ -->
<!-- Fill background -->
<rect x="564" y="252" width="310" height="116" rx="10" fill="#fff" filter="url(#sh)"/>
<!-- Header band -->
<rect x="564" y="252" width="310" height="30" rx="10" fill="#E8F4FD"/>
<rect x="564" y="272" width="310" height="10" fill="#E8F4FD"/>
<!-- Border on top -->
<rect x="564" y="252" width="310" height="116" rx="10" fill="none" stroke="#0078D4" stroke-width="1.2"/>
<!-- Content -->
<use href="#devops-logo" x="576" y="256" width="18" height="18"/>
<text x="600" y="271" font-size="12" font-weight="700" fill="#0078D4">Azure DevOps — DEV Branch</text>

<text x="584" y="298" font-size="10.5" fill="#555">Backup and version control (safety net)</text>
<text x="584" y="314" font-size="10.5" fill="#555">Full history of every change — revert anytime</text>

<!-- Branch visualization -->
<rect x="584" y="328" width="272" height="28" rx="5" fill="#fafbfc" stroke="#e5e5e5" stroke-width=".6"/>
<text x="598" y="346" font-size="10" fill="#0078D4" font-weight="600">⎇ dev</text>
<circle cx="650" cy="342" r="5" fill="#0078D4"/>
<circle cx="678" cy="342" r="5" fill="#0078D4"/>
<circle cx="706" cy="342" r="5" fill="#0078D4"/>
<circle cx="734" cy="342" r="5" fill="#0078D4" opacity="0.4"/>
<line x1="655" y1="342" x2="673" y2="342" stroke="#0078D4" stroke-width="1.5"/>
<line x1="683" y1="342" x2="701" y2="342" stroke="#0078D4" stroke-width="1.5"/>
<line x1="711" y1="342" x2="729" y2="342" stroke="#0078D4" stroke-width="1.5" stroke-dasharray="3,2"/>
<text x="752" y="346" font-size="9" fill="#888">commits</text>

<!-- ═══════════════════════════════════════════════════ -->
<!-- ARROW: DevOps DEV → DevOps PROD (Pull Request)     -->
<!-- ═══════════════════════════════════════════════════ -->
<line x1="719" y1="386" x2="719" y2="428" stroke="#5B2D90" stroke-width="1.8"/>
<path d="M716,423 L719,431 L722,423" fill="none" stroke="#5B2D90" stroke-width="1.8" stroke-linejoin="round"/>
<rect x="732" y="398" width="88" height="22" rx="5" fill="#5B2D90" filter="url(#sh)"/>
<text x="776" y="413" text-anchor="middle" font-size="9.5" fill="#fff" font-weight="600">Pull Request</text>

<!-- ═══════════════════════════════════════════════════ -->
<!-- AZURE DEVOPS — PROD BRANCH                         -->
<!-- ═══════════════════════════════════════════════════ -->
<!-- Fill background -->
<rect x="564" y="446" width="310" height="134" rx="10" fill="#fff" filter="url(#sh)"/>
<!-- Header band -->
<rect x="564" y="446" width="310" height="30" rx="10" fill="#F3EEFF"/>
<rect x="564" y="466" width="310" height="10" fill="#F3EEFF"/>
<!-- Border on top -->
<rect x="564" y="446" width="310" height="134" rx="10" fill="none" stroke="#5B2D90" stroke-width="1.2"/>
<!-- Content -->
<use href="#devops-logo" x="576" y="450" width="18" height="18"/>
<text x="600" y="465" font-size="12" font-weight="700" fill="#5B2D90">Azure DevOps — PROD Branch</text>

<text x="584" y="492" font-size="10.5" fill="#555">Configure prod-specific overrides in this branch:</text>
<text x="584" y="508" font-size="10" fill="#555">Enable pipeline schedules, swap Lakehouse connections,</text>
<text x="584" y="524" font-size="10" fill="#555">set SM parameters — commit once, persists across merges</text>

<!-- Branch visualization -->
<rect x="584" y="540" width="272" height="28" rx="5" fill="#fafbfc" stroke="#e5e5e5" stroke-width=".6"/>
<text x="598" y="558" font-size="10" fill="#5B2D90" font-weight="600">⎇ prod</text>
<circle cx="650" cy="554" r="5" fill="#5B2D90"/>
<circle cx="678" cy="554" r="5" fill="#5B2D90"/>
<circle cx="706" cy="554" r="5" fill="#5B2D90"/>
<circle cx="734" cy="554" r="5" fill="#5B2D90" opacity="0.4"/>
<line x1="655" y1="554" x2="673" y2="554" stroke="#5B2D90" stroke-width="1.5"/>
<line x1="683" y1="554" x2="701" y2="554" stroke="#5B2D90" stroke-width="1.5"/>
<line x1="711" y1="554" x2="729" y2="554" stroke="#5B2D90" stroke-width="1.5" stroke-dasharray="3,2"/>
<text x="752" y="558" font-size="9" fill="#888">overrides</text>

<!-- ═══════════════════════════════════════════════════ -->
<!-- ARROW: DevOps PROD → Fabric PROD Workspace         -->
<!-- ═══════════════════════════════════════════════════ -->
<line x1="719" y1="598" x2="719" y2="636" stroke="#107C10" stroke-width="1.8"/>
<path d="M716,631 L719,639 L722,631" fill="none" stroke="#107C10" stroke-width="1.8" stroke-linejoin="round"/>
<text x="740" y="612" font-size="9.5" fill="#107C10" font-weight="600">sync</text>
<text x="740" y="626" font-size="9" fill="#777" font-style="italic">Fabric Git Integration</text>

<!-- ═══════════════════════════════════════════════════ -->
<!-- FABRIC PROD WORKSPACE (bottom-right)               -->
<!-- ═══════════════════════════════════════════════════ -->
<!-- Fill background -->
<rect x="564" y="654" width="310" height="64" rx="10" fill="#fff" filter="url(#sh)"/>
<!-- Header band -->
<rect x="564" y="654" width="310" height="30" rx="10" fill="#EBF7EB"/>
<rect x="564" y="674" width="310" height="10" fill="#EBF7EB"/>
<!-- Border on top -->
<rect x="564" y="654" width="310" height="64" rx="10" fill="none" stroke="#107C10" stroke-width="1.2"/>
<!-- Content -->
<use href="#fabric-logo" x="576" y="658" width="18" height="18"/>
<text x="600" y="673" font-size="11" font-weight="700" fill="#107C10">Fabric PROD Workspace</text>
<text x="584" y="700" font-size="10.5" fill="#555">Live — Items available in Production</text>

<!-- ═══════════════════════════════════════════════════ -->
<!-- DEVELOPMENT CYCLE STEPS (bottom-left)              -->
<!-- ═══════════════════════════════════════════════════ -->
<!-- Fill background -->
<rect x="50" y="388" width="380" height="330" rx="10" fill="#fff" filter="url(#sh)"/>
<!-- Header band -->
<rect x="50" y="388" width="380" height="30" rx="10" fill="#f5f5f5"/>
<rect x="50" y="408" width="380" height="10" fill="#f5f5f5"/>
<!-- Border on top -->
<rect x="50" y="388" width="380" height="330" rx="10" fill="none" stroke="#e5e5e5" stroke-width="1"/>
<!-- Content -->
<text x="70" y="408" font-size="11" font-weight="700" fill="#242424">Development Cycle</text>

<!-- Step 1 -->
<rect x="62" y="430" width="22" height="22" rx="11" fill="#038387"/>
<text x="73" y="445" text-anchor="middle" font-size="9.5" font-weight="700" fill="#fff">1</text>
<text x="92" y="445" font-size="10" fill="#242424"><tspan font-weight="600">Pull</tspan> items from DEV workspace → local folder</text>

<!-- Step 2 -->
<rect x="62" y="460" width="22" height="22" rx="11" fill="#038387"/>
<text x="73" y="475" text-anchor="middle" font-size="9.5" font-weight="700" fill="#fff">2</text>
<text x="92" y="475" font-size="10" fill="#242424"><tspan font-weight="600">Edit</tspan> with AI agents or manually in VS Code</text>

<!-- Step 3 -->
<rect x="62" y="490" width="22" height="22" rx="11" fill="#038387"/>
<text x="73" y="505" text-anchor="middle" font-size="9.5" font-weight="700" fill="#fff">3</text>
<text x="92" y="505" font-size="10" fill="#242424"><tspan font-weight="600">Push</tspan> changes back to DEV workspace</text>

<!-- Step 4 -->
<rect x="62" y="520" width="22" height="22" rx="11" fill="#038387"/>
<text x="73" y="535" text-anchor="middle" font-size="9.5" font-weight="700" fill="#fff">4</text>
<text x="92" y="535" font-size="10" fill="#242424"><tspan font-weight="600">Test</tspan> in Fabric portal + make manual amendments</text>

<!-- Step 5 -->
<rect x="62" y="556" width="22" height="22" rx="11" fill="#0078D4"/>
<text x="73" y="571" text-anchor="middle" font-size="9.5" font-weight="700" fill="#fff">5</text>
<text x="92" y="571" font-size="10" fill="#242424"><tspan font-weight="600">Happy?</tspan> Commit to DevOps DEV branch</text>

<!-- Step warning -->
<rect x="62" y="586" width="22" height="22" rx="11" fill="#D83B01"/>
<text x="73" y="601" text-anchor="middle" font-size="9.5" fill="#fff">⚠</text>
<text x="92" y="601" font-size="10" fill="#242424"><tspan font-weight="600">Not happy?</tspan> Revert from DevOps to previous version</text>

<!-- Separator -->
<line x1="70" y1="624" x2="410" y2="624" stroke="#e5e5e5" stroke-width="1"/>

<text x="70" y="646" font-size="10.5" font-weight="700" fill="#242424">Promotion to Production</text>

<!-- Step 6 -->
<rect x="62" y="660" width="22" height="22" rx="11" fill="#5B2D90"/>
<text x="73" y="675" text-anchor="middle" font-size="9.5" font-weight="700" fill="#fff">6</text>
<text x="92" y="675" font-size="10" fill="#242424"><tspan font-weight="600">PR</tspan> dev → prod branch, then sync to PROD workspace</text>

<!-- ═══════════════════════════════════════════════════ -->
<!-- LEGEND (top-right) — centered between DevOps and   -->
<!-- right edge: space 874-1100 = 226px                 -->
<!-- ═══════════════════════════════════════════════════ -->
<rect x="895" y="46" width="185" height="130" rx="8" fill="#fafbfc" stroke="#e5e5e5" stroke-width=".8"/>
<text x="913" y="66" font-size="10" font-weight="700" fill="#242424">Connection Types</text>

<line x1="913" y1="84" x2="943" y2="84" stroke="#0078D4" stroke-width="1.5"/>
<text x="951" y="88" font-size="8.5" fill="#555">Push (Fabric Extension)</text>
<line x1="913" y1="102" x2="943" y2="102" stroke="#107C10" stroke-width="1.5" stroke-dasharray="4,2"/>
<text x="951" y="106" font-size="8.5" fill="#555">Pull (Fabric Extension)</text>

<line x1="913" y1="120" x2="943" y2="120" stroke="#0078D4" stroke-width="1.5"/>
<circle cx="928" cy="120" r="2" fill="#0078D4"/>
<text x="951" y="124" font-size="8.5" fill="#555">Commit (Git Integration)</text>
<line x1="913" y1="138" x2="943" y2="138" stroke="#D83B01" stroke-width="1.5" stroke-dasharray="4,2"/>
<text x="951" y="142" font-size="8.5" fill="#555">Revert (Git Integration)</text>

<rect x="913" y="150" width="30" height="14" rx="4" fill="#5B2D90"/>
<text x="928" y="161" text-anchor="middle" font-size="7.5" fill="#fff" font-weight="700">PR</text>
<text x="951" y="161" font-size="8.5" fill="#555">Pull Request (dev → prod)</text>

<!-- ═══════════════════════════════════════════════════ -->
<!-- KEY INSIGHT (top-right, below legend)               -->
<!-- ═══════════════════════════════════════════════════ -->
<rect x="895" y="190" width="185" height="90" rx="8" fill="#fafbfc" stroke="#e5e5e5" stroke-width=".8"/>
<text x="913" y="210" font-size="10" font-weight="700" fill="#242424">💡 Key Concept</text>
<text x="913" y="228" font-size="9" fill="#555">DEV workspace = testing ground</text>
<text x="913" y="244" font-size="9" fill="#555">DevOps = safety net + promotion</text>
<text x="913" y="260" font-size="9" fill="#555">PROD = stable, parameterized</text>
<text x="913" y="274" font-size="8.5" fill="#888" font-style="italic">Revert anytime. Deploy when confident.</text>

</svg>
