<svg xmlns="http://www.w3.org/2000/svg" viewBox="0 0 1137 540" width="1137" height="540" font-family="'Segoe UI',system-ui,sans-serif">
<rect width="100%" height="100%" fill="#FFFFFF"/>
<defs>
  <filter id="sh" x="-4%" y="-7%" width="108%" height="118%"><feDropShadow dx="0" dy="10" stdDeviation="12" flood-color="#0F172A10"/><feDropShadow dx="0" dy="1" stdDeviation="1.5" flood-color="#0F172A12"/></filter>
  <linearGradient id="fabric-rail" x1="24" x2="1113" y1="0" y2="0" gradientUnits="userSpaceOnUse"><stop stop-color="#6AD6F9"/><stop offset=".28" stop-color="#60E9D0"/><stop offset=".68" stop-color="#6DE9BB"/><stop offset="1" stop-color="#ABE88E"/></linearGradient>
  <marker id="arrow-blue" markerWidth="5.5" markerHeight="5.5" refX="5" refY="2.75" orient="auto"><path d="M0,0 L5.5,2.75 L0,5.5 Z" fill="#0078D4"/></marker>
  <marker id="arrow-orange" markerWidth="5.5" markerHeight="5.5" refX="5" refY="2.75" orient="auto"><path d="M0,0 L5.5,2.75 L0,5.5 Z" fill="#D83B01"/></marker>
  <marker id="arrow-purple" markerWidth="5.5" markerHeight="5.5" refX="5" refY="2.75" orient="auto"><path d="M0,0 L5.5,2.75 L0,5.5 Z" fill="#5B2D90"/></marker>
  <marker id="arrow-green" markerWidth="5.5" markerHeight="5.5" refX="5" refY="2.75" orient="auto"><path d="M0,0 L5.5,2.75 L0,5.5 Z" fill="#107C10"/></marker>
  <symbol id="devops-logo" viewBox="0 0 18 18">
    <path d="M17 4v10l-3 2l-7.03-2.58V16l-3.47-4.5l10.5.83V5.17L17 4ZM13.97 3.42L6.94 1L4 3.5v11l2.94-1.08V5.25l7.03 1.59V3.42Z" fill="#0078D4"/>
  </symbol>
  <symbol id="git-logo" viewBox="0 0 97 97"><path d="M92.71 44.41 52.59 4.29a6.34 6.34 0 0 0-8.97 0l-8.33 8.33 10.57 10.57a7.53 7.53 0 0 1 9.54 9.6l10.18 10.18a7.54 7.54 0 1 1-4.52 4.27L51.57 37.75v24.98a7.54 7.54 0 1 1-6.19-.22V37.29a7.55 7.55 0 0 1-4.1-9.9L30.86 16.96 4.29 43.53a6.34 6.34 0 0 0 0 8.97l40.12 40.12a6.34 6.34 0 0 0 8.97 0l39.33-39.33a6.34 6.34 0 0 0 0-8.88Z" fill="#F05033"/></symbol>
  <linearGradient id="fab-a" x1="12.953" x2="12.953" y1="44" y2="29.457" gradientUnits="userSpaceOnUse"><stop offset=".056" stop-color="#2AAC94"/><stop offset="1" stop-color="#085954"/></linearGradient>
  <linearGradient id="fab-b" x1="31.331" x2="17.286" y1="33.448" y2="18.173" gradientUnits="userSpaceOnUse"><stop offset=".042" stop-color="#ABE88E"/><stop offset=".549" stop-color="#2AAA92"/><stop offset=".906" stop-color="#117865"/></linearGradient>
  <linearGradient id="fab-e" x1="7.013" x2="39.06" y1="10.247" y2="25.128" gradientUnits="userSpaceOnUse"><stop stop-color="#6AD6F9"/><stop offset=".23" stop-color="#60E9D0"/><stop offset=".651" stop-color="#6DE9BB"/><stop offset=".994" stop-color="#ABE88E"/></linearGradient>
  <symbol id="vscode-icon" viewBox="0 0 16 16"><path d="M15.434 1.72887L12.14 0.144875C12.002 0.078875 11.855 0.046875 11.709 0.046875C11.353 0.046875 11.18 0.211875 11.155 0.228875C11.073 0.270875 11.005 0.337875 11.004 0.338875L4.698 6.08888L1.951 4.00488C1.832 3.91388 1.69 3.86987 1.548 3.86987C1.387 3.86987 1.226 3.92788 1.1 4.04288L0.219 4.84387C0.074 4.97587 0.001 5.15688 0.001 5.33687C0.001 5.51687 0.073 5.69688 0.218 5.82888L2.6 8.00088L0.217 10.1719C0.072 10.3039 0 10.4839 0 10.6639C0 10.8439 0.073 11.0249 0.218 11.1569L1.099 11.9579C1.226 12.0729 1.386 12.1309 1.547 12.1309C1.688 12.1309 1.83 12.0859 1.95 11.9959L4.697 9.91187L11.003 15.6619C11.003 15.6619 11.072 15.7299 11.155 15.7719C11.179 15.7889 11.353 15.9529 11.709 15.9529C11.855 15.9529 12.003 15.9209 12.141 15.8549L15.435 14.2709C15.781 14.1049 16.001 13.7539 16.001 13.3699V2.62888C16.001 2.24487 15.781 1.89488 15.435 1.72787L15.434 1.72887ZM7.217 7.99988L12.002 4.36987V11.6299L7.217 7.99988Z" fill="#007ACC"/></symbol>
  <symbol id="fabric-logo" viewBox="0 0 48 48">
    <path fill="url(#fab-e)" d="m12.899 21.235 26.938-3.98a1.6 1.6 0 0 0 1.323-1.17l2.78-10.06a1.595 1.595 0 0 0-1.74-2.012L16.498 7.81a7.19 7.19 0 0 0-5.777 5.193L7.013 26.438c.744-2.717 1.202-4.355 5.886-5.203"/>
    <path fill="url(#fab-b)" d="M10.14 32.152c-4.863.753-5.861 4.423-5.861 4.423l4.656-17.11 24.333-3.292-3.318 12.052a1.71 1.71 0 0 1-1.388 1.244l-.136.022-18.423 2.684z"/>
    <path fill="url(#fab-a)" fill-rule="evenodd" d="m5.64 31.6-.586 2.144c-.218.685-.524 1.693-.689 2.59a5.63 5.63 0 0 0 4.638 7.588c.792.114 1.688.108 2.692-.04l4.613-.636a2.92 2.92 0 0 0 2.421-2.127l3.175-11.662L5.64 31.599Z" clip-rule="evenodd"/>
  </symbol>
</defs>

<!-- Header -->
<rect x="24" y="18" width="1089" height="3" rx="1.5" fill="url(#fabric-rail)"/>
<text x="568" y="37" text-anchor="middle" font-size="17" font-weight="700" fill="#111827">Working Mode C &#8212; Hybrid</text>
<text x="568" y="61" text-anchor="middle" font-size="11" fill="#425466" font-weight="500">Use local files and live tools together, then keep both edit paths aligned.</text>

<!-- ===== CARD 1 : VS Code (dark) ===== -->
<rect x="24" y="92" width="181" height="190" rx="6" fill="#1E1E1E" filter="url(#sh)"/>
<rect x="24" y="92" width="181" height="34" rx="8" fill="#252526"/>
<rect x="24" y="108" width="181" height="18" fill="#252526"/>
<use href="#vscode-icon" x="38" y="100" width="18" height="18"/>
<text x="62" y="114" font-size="11.5" font-weight="700" fill="#E8E8E8">VS Code &#183; Local + Live</text>
<text x="38" y="150" font-size="10" fill="#CFCFCF">Pull only what you need</text>
<text x="38" y="170" font-size="10" fill="#CFCFCF">Edit files AND act live</text>
<text x="38" y="190" font-size="10" fill="#CFCFCF">One DEV &#183; both edit paths</text>
<line x1="38" y1="206" x2="191" y2="206" stroke="rgba(255,255,255,0.12)" stroke-width="1"/>
<rect x="38" y="224" width="153" height="34" rx="6" fill="rgba(255,255,255,0.07)" stroke="rgba(255,255,255,0.18)" stroke-width="0.8"/>
<text x="52" y="245" font-size="10" fill="#F7EFE6" font-weight="700">Local + live in one job</text>
<rect x="24" y="92" width="181" height="190" rx="6" fill="none" stroke="#3C3C3C" stroke-width="1"/>

<!-- connector 1 -> 2 : Push/Write + Pull/Read -->
<text x="228" y="178" text-anchor="middle" font-size="9.5" fill="#0078D4" font-weight="700">Push /</text>
<text x="228" y="189" text-anchor="middle" font-size="9.5" fill="#0078D4" font-weight="700">Write</text>
<path d="M209,198 L247,198" stroke="#0078D4" stroke-width="1.55" stroke-linecap="round" fill="none" marker-end="url(#arrow-blue)"/>
<path d="M247,216 L209,216" stroke="#107C10" stroke-width="1.55" stroke-linecap="round" fill="none" stroke-dasharray="4,4" marker-end="url(#arrow-green)"/>
<text x="228" y="234" text-anchor="middle" font-size="9.5" fill="#107C10" font-weight="700">Pull /</text>
<text x="228" y="245" text-anchor="middle" font-size="9.5" fill="#107C10" font-weight="700">Read</text>

<!-- ===== CARD 2 : Fabric DEV ===== -->
<rect x="251" y="92" width="181" height="190" rx="6" fill="#fff" filter="url(#sh)"/>
<rect x="251" y="92" width="181" height="34" rx="8" fill="#FFFFFF"/>
<rect x="251" y="108" width="181" height="18" fill="#FFFFFF"/>
<rect x="251" y="92" width="181" height="4" rx="2" fill="#038387"/>
<rect x="251" y="92" width="181" height="190" rx="6" fill="none" stroke="#DDE7E7" stroke-width="1"/>
<use href="#fabric-logo" x="265" y="99" width="20" height="20"/>
<text x="291" y="113" font-size="12" font-weight="700" fill="#038387">Fabric DEV</text>
<text x="267" y="152" font-size="10.5" fill="#374151">Receives push AND live</text>
<text x="267" y="174" font-size="10.5" fill="#374151">Edits in one session</text>
<text x="267" y="196" font-size="10.5" fill="#374151">Single source of truth</text>
<rect x="267" y="240" width="149" height="28" rx="6" fill="#F0FAF8" stroke="#9FD9CE" stroke-width="1"/>
<text x="341" y="258" text-anchor="middle" font-size="10" fill="#0E6E63" font-weight="600">Both paths converge</text>

<!-- connector 2 -> 3 : Commit / Revert -->
<text x="455" y="184" text-anchor="middle" font-size="10.5" fill="#0078D4" font-weight="700">Commit</text>
<path d="M436,194 L474,194" stroke="#0078D4" stroke-width="1.55" stroke-linecap="round" fill="none" marker-end="url(#arrow-blue)"/>
<path d="M474,212 L436,212" stroke="#D83B01" stroke-width="1.55" stroke-linecap="round" fill="none" stroke-dasharray="4,4" marker-end="url(#arrow-orange)"/>
<text x="455" y="230" text-anchor="middle" font-size="10.5" fill="#D83B01" font-weight="700">Revert</text>

<!-- ===== CARD 3 : Azure DevOps · Dev Branch ===== -->
<rect x="478" y="92" width="181" height="190" rx="6" fill="#fff" filter="url(#sh)"/>
<rect x="478" y="92" width="181" height="34" rx="8" fill="#FFFFFF"/>
<rect x="478" y="108" width="181" height="18" fill="#FFFFFF"/>
<rect x="478" y="92" width="181" height="4" rx="2" fill="#0078D4"/>
<rect x="478" y="92" width="181" height="190" rx="6" fill="none" stroke="#D9E8F5" stroke-width="1"/>
<use href="#devops-logo" x="492" y="99" width="18" height="18"/>
<text x="516" y="113" font-size="12" font-weight="700" fill="#0078D4">Azure DevOps</text>
<rect x="494" y="138" width="94" height="20" rx="10" fill="#0078D4"/>
<circle cx="506" cy="148" r="7" fill="#fff"/>
<use href="#git-logo" x="501" y="143" width="10" height="10"/>
<text x="550" y="152" text-anchor="middle" font-size="10" font-weight="700" fill="#fff">Dev Branch</text>
<text x="494" y="184" font-size="10.5" fill="#374151">One commit, both paths</text>
<text x="494" y="206" font-size="10.5" fill="#374151">Revert to any commit</text>
<rect x="494" y="240" width="149" height="28" rx="6" fill="#EFF6FC" stroke="#BBDDF5" stroke-width="1"/>
<text x="568" y="258" text-anchor="middle" font-size="10" fill="#0A5FA8" font-weight="600">Full commit history</text>

<!-- connector 3 -> 4 : Pull Request -->
<text x="682" y="186" text-anchor="middle" font-size="10.5" fill="#5B2D90" font-weight="700">Pull</text>
<text x="682" y="198" text-anchor="middle" font-size="10.5" fill="#5B2D90" font-weight="700">Request</text>
<path d="M661,214 L703,214" stroke="#5B2D90" stroke-width="1.65" stroke-linecap="round" fill="none" marker-end="url(#arrow-purple)"/>

<!-- ===== CARD 4 : Azure DevOps · Prod Branch ===== -->
<rect x="705" y="92" width="181" height="190" rx="6" fill="#fff" filter="url(#sh)"/>
<rect x="705" y="92" width="181" height="34" rx="8" fill="#FFFFFF"/>
<rect x="705" y="108" width="181" height="18" fill="#FFFFFF"/>
<rect x="705" y="92" width="181" height="4" rx="2" fill="#5B2D90"/>
<rect x="705" y="92" width="181" height="190" rx="6" fill="none" stroke="#E4DDF0" stroke-width="1"/>
<use href="#devops-logo" x="719" y="99" width="18" height="18"/>
<text x="743" y="113" font-size="12" font-weight="700" fill="#5B2D90">Azure DevOps</text>
<rect x="721" y="138" width="98" height="20" rx="10" fill="#5B2D90"/>
<circle cx="733" cy="148" r="7" fill="#fff"/>
<use href="#git-logo" x="728" y="143" width="10" height="10"/>
<text x="779" y="152" text-anchor="middle" font-size="10" font-weight="700" fill="#fff">Prod Branch</text>
<text x="721" y="184" font-size="10.5" fill="#374151">Promoted from Dev via PR</text>
<text x="721" y="206" font-size="10.5" fill="#374151">Prod settings persist</text>
<rect x="721" y="240" width="149" height="28" rx="6" fill="#F6F1FC" stroke="#DCCBEF" stroke-width="1"/>
<text x="795" y="258" text-anchor="middle" font-size="10" fill="#4A2475" font-weight="600">Updated only by PR</text>

<!-- connector 4 -> 5 : Sync -->
<text x="909" y="190" text-anchor="middle" font-size="10.5" fill="#107C10" font-weight="700">Sync</text>
<path d="M888,204 L930,204" stroke="#107C10" stroke-width="1.65" stroke-linecap="round" fill="none" marker-end="url(#arrow-green)"/>

<!-- ===== CARD 5 : Fabric PROD ===== -->
<rect x="932" y="92" width="181" height="190" rx="6" fill="#fff" filter="url(#sh)"/>
<rect x="932" y="92" width="181" height="34" rx="8" fill="#FFFFFF"/>
<rect x="932" y="108" width="181" height="18" fill="#FFFFFF"/>
<rect x="932" y="92" width="181" height="4" rx="2" fill="#107C10"/>
<rect x="932" y="92" width="181" height="190" rx="6" fill="none" stroke="#DDEBDD" stroke-width="1"/>
<use href="#fabric-logo" x="946" y="99" width="20" height="20"/>
<text x="972" y="113" font-size="12" font-weight="700" fill="#107C10">Fabric PROD</text>
<text x="948" y="152" font-size="10.5" fill="#374151">Synced from Prod branch</text>
<text x="948" y="174" font-size="10.5" fill="#374151">Live for end users</text>
<text x="948" y="196" font-size="10.5" fill="#374151">One release at a time</text>
<rect x="948" y="240" width="149" height="28" rx="6" fill="#EBF7EB" stroke="#A6D8A6" stroke-width="1"/>
<text x="1022" y="258" text-anchor="middle" font-size="10" fill="#0B5E0B" font-weight="600">Live in production</text>

<!-- toolset strip -->
<rect x="208" y="292" width="721" height="24" rx="12" fill="#FFFFFF" stroke="#DDE4EE" stroke-width="1"/>
<text x="228" y="308" font-size="8.5" fill="#6B7280" letter-spacing="1.1" font-weight="700">TOOLSET</text>
<use href="#fabric-logo" x="292" y="296" width="15" height="15"/>
<text x="313" y="308" font-size="10" fill="#0E6E63" font-weight="700">Fabric Extension</text>
<text x="426" y="308" font-size="10" fill="#6B7280">+</text>
<text x="443" y="308" font-size="10" fill="#0A5FA8" font-weight="700">Fabric MCP</text>
<text x="525" y="308" font-size="10" fill="#6B7280">+</text>
<text x="542" y="308" font-size="10" fill="#8A6B00" font-weight="700">Power BI MCP</text>
<text x="651" y="308" font-size="10" fill="#6B7280">+</text>
<text x="667" y="308" font-size="10" fill="#0E6E63" font-weight="700">fab CLI</text>
<text x="729" y="308" font-size="10" fill="#6B7280">+</text>
<text x="745" y="308" font-size="10" fill="#0078D4" font-weight="700">az CLI</text>
<text x="805" y="308" font-size="10" fill="#6B7280">files + live tools</text>

<!-- ===== Explanation panel ===== -->
<rect x="24" y="320" width="1089" height="198" rx="8" fill="#fff" filter="url(#sh)"/>
<rect x="24" y="320" width="1089" height="32" rx="8" fill="#F3F6FA"/>
<rect x="24" y="336" width="1089" height="16" fill="#F6F8FA"/>
<rect x="24" y="320" width="1089" height="198" rx="8" fill="none" stroke="#E1E6EF" stroke-width="1"/>
<text x="44" y="341" font-size="12.5" font-weight="700" fill="#1F2937">How it works &#8212; mix local files and live tools, then keep them in sync</text>

<circle cx="52" cy="376" r="4" fill="#C9710A"/>
<text x="66" y="380" font-size="11.5" fill="#374151">Per session, <tspan font-weight="700">pull locally only the items you need</tspan>, then do mixed work &#8212; edit some files locally, touch others live.</text>
<circle cx="52" cy="402" r="4" fill="#C9710A"/>
<text x="66" y="406" font-size="11.5" fill="#374151">Both edit paths converge on the same DEV workspace and are captured by the <tspan font-weight="700">same Azure DevOps commit</tspan> &#8212; equally safe.</text>

<rect x="44" y="420" width="1045" height="30" rx="8" fill="#FBF1E6" stroke="#E6C89A" stroke-width="1.2"/>
<text x="60" y="439" font-size="11.5" fill="#A35A12" font-weight="700">&#9888; Golden rule &#8212; keep local = live:</text>
<text x="270" y="439" font-size="11.5" fill="#6E4A1E">re-pull from the live workspace before each new job so your local folder matches it exactly &#8212; this avoids drift.</text>

<rect x="44" y="458" width="1045" height="48" rx="8" fill="#FBF1E6" stroke="#E6C89A" stroke-width="1.2"/>
<text x="62" y="479" font-size="12.5" font-weight="700" fill="#A35A12">Best for</text>
<text x="140" y="479" font-size="12" fill="#6E4A1E">Day-to-day work that blends structured file edits with live checks.</text>
<text x="62" y="498" font-size="10.5" fill="#9A7A4E" font-style="italic">Needs the Fabric extension + fab/az + the two MCP servers, depending on what you touch.</text>
</svg>
